<svg width="1231" height="271" viewBox="0 0 1231 271" fill="none" xmlns="http://www.w3.org/2000/svg">
<mask id="path-1-outside-1_175_6" maskUnits="userSpaceOnUse" x="292" y="51" width="869" height="180" fill="black">
<rect fill="white" x="292" y="51" width="869" height="180"/>
<path d="M410.59 61.5781H460.199L360.98 220.66H339.398L302.289 61.5781H345.844L362.348 144.391L410.59 61.5781ZM501.926 222.516C457.492 220.074 430.832 186.871 436.984 140.484C443.527 90.6797 483.762 56.5977 531.418 59.2344C576.34 61.6758 602.707 95.4648 596.457 141.852C589.719 191.852 549.094 225.055 501.926 222.516ZM509.152 183.16C531.809 183.941 549.973 164.996 553.879 141.07C557.883 116.656 545.285 98.9805 524.387 98.3945C502.414 97.6133 483.566 115.777 479.562 140.484C475.754 163.922 487.277 182.477 509.152 183.16ZM599.219 219L629.785 61.5781H672.461L641.895 219H599.219ZM748.27 61.5781C781.18 61.4805 822.977 80.7188 815.652 140.484C806.18 219 730.301 219 717.703 219H666.336L696.902 61.6758L748.27 61.5781ZM772.781 140.289C776.395 114.703 761.258 100.641 739.48 100.641H731.863L716.531 179.645H724.441C742.801 179.645 768.68 170.367 772.781 140.289ZM1008.97 115.582C1005.55 135.992 991.879 151.812 973.324 157.574L1005.94 219H959.945L931.039 158.648L919.32 219H876.742L907.113 61.5781H959.945C991.879 61.5781 1014.54 82.6719 1008.97 115.582ZM942.367 99.6641L936.41 130.23L947.738 130.328C958.188 130.523 965.902 124.566 967.27 115.484C968.637 106.402 962.582 99.6641 953.695 99.6641H942.367ZM1018.08 219L1048.64 61.5781H1102.84C1134 61.5781 1156.95 82.8672 1151.87 118.219C1147.08 151.52 1121.11 172.613 1081.26 172.613H1069.84L1060.75 219H1018.08ZM1088.78 134.137C1102.45 134.234 1110.36 127.887 1112.02 117.926C1113.68 107.281 1106.85 100.152 1095.32 100.152H1083.9L1077.26 134.039L1088.78 134.137Z"/>
</mask>
<path d="M410.59 61.5781V53.5781H405.992L403.677 57.5512L410.59 61.5781ZM460.199 61.5781L466.987 65.8117L474.617 53.5781H460.199V61.5781ZM360.98 220.66V228.66H365.419L367.768 224.894L360.98 220.66ZM339.398 220.66L331.608 222.478L333.05 228.66H339.398V220.66ZM302.289 61.5781V53.5781H292.208L294.498 63.3955L302.289 61.5781ZM345.844 61.5781L353.689 60.0145L352.407 53.5781H345.844V61.5781ZM362.348 144.391L354.502 145.954L358.63 166.666L369.26 148.418L362.348 144.391ZM410.59 61.5781V69.5781H460.199V61.5781V53.5781H410.59V61.5781ZM460.199 61.5781L453.411 57.3445L354.193 216.427L360.98 220.66L367.768 224.894L466.987 65.8117L460.199 61.5781ZM360.98 220.66V212.66H339.398V220.66V228.66H360.98V220.66ZM339.398 220.66L347.189 218.843L310.08 59.7607L302.289 61.5781L294.498 63.3955L331.608 222.478L339.398 220.66ZM302.289 61.5781V69.5781H345.844V61.5781V53.5781H302.289V61.5781ZM345.844 61.5781L337.998 63.1417L354.502 145.954L362.348 144.391L370.193 142.827L353.689 60.0145L345.844 61.5781ZM362.348 144.391L369.26 148.418L417.502 65.605L410.59 61.5781L403.677 57.5512L355.435 140.364L362.348 144.391ZM501.926 222.516L501.487 230.504L501.496 230.504L501.926 222.516ZM436.984 140.484L444.915 141.536L444.916 141.526L436.984 140.484ZM531.418 59.2344L530.976 67.2222L530.984 67.2226L531.418 59.2344ZM596.457 141.852L604.385 142.92L604.385 142.92L596.457 141.852ZM509.152 183.16L509.428 175.165L509.415 175.164L509.402 175.164L509.152 183.16ZM553.879 141.07L545.984 139.776L545.983 139.781L553.879 141.07ZM524.387 98.3945L524.102 106.389L524.132 106.391L524.163 106.391L524.387 98.3945ZM479.562 140.484L487.459 141.768L487.459 141.764L479.562 140.484ZM501.926 222.516L502.365 214.528C482.107 213.415 466.586 205.378 456.748 193.001C446.882 180.591 442.071 162.979 444.915 141.536L436.984 140.484L429.054 139.433C425.745 164.377 431.188 186.56 444.223 202.958C457.285 219.39 477.311 229.175 501.487 230.504L501.926 222.516ZM436.984 140.484L444.916 141.526C450.944 95.6415 487.725 64.8292 530.976 67.2222L531.418 59.2344L531.86 51.2466C479.798 48.3661 436.11 85.7179 429.053 139.442L436.984 140.484ZM531.418 59.2344L530.984 67.2226C551.46 68.3354 567.016 76.4998 576.835 89.0042C586.691 101.556 591.42 119.323 588.529 140.783L596.457 141.852L604.385 142.92C607.744 117.993 602.414 95.6723 589.419 79.1228C576.386 62.5256 556.298 52.5747 531.852 51.2462L531.418 59.2344ZM596.457 141.852L588.529 140.783C582.331 186.775 545.236 216.835 502.356 214.527L501.926 222.516L501.496 230.504C552.951 233.274 597.107 196.928 604.385 142.92L596.457 141.852ZM509.152 183.16L508.877 191.155C536.68 192.114 557.419 169.038 561.774 142.359L553.879 141.07L545.983 139.781C542.527 160.955 526.937 175.769 509.428 175.165L509.152 183.16ZM553.879 141.07L561.773 142.365C564.034 128.58 561.737 115.833 555.033 106.221C548.232 96.4683 537.435 90.7572 524.611 90.3977L524.387 98.3945L524.163 106.391C532.237 106.618 538.188 110.038 541.909 115.373C545.728 120.849 547.727 129.147 545.984 139.776L553.879 141.07ZM524.387 98.3945L524.671 90.3996C497.707 89.4409 476.148 111.546 471.666 139.205L479.562 140.484L487.459 141.764C490.985 120.008 507.121 105.786 524.102 106.389L524.387 98.3945ZM479.562 140.484L471.666 139.201C469.516 152.434 471.564 165.103 478.084 174.815C484.741 184.728 495.537 190.739 508.902 191.156L509.152 183.16L509.402 175.164C500.892 174.898 494.99 171.289 491.368 165.895C487.61 160.299 485.801 151.973 487.459 141.768L479.562 140.484ZM599.219 219L591.365 217.475L589.516 227H599.219V219ZM629.785 61.5781V53.5781H623.189L621.932 60.0533L629.785 61.5781ZM672.461 61.5781L680.314 63.103L682.164 53.5781H672.461V61.5781ZM641.895 219V227H648.491L649.748 220.525L641.895 219ZM599.219 219L607.072 220.525L637.638 63.103L629.785 61.5781L621.932 60.0533L591.365 217.475L599.219 219ZM629.785 61.5781V69.5781H672.461V61.5781V53.5781H629.785V61.5781ZM672.461 61.5781L664.608 60.0533L634.041 217.475L641.895 219L649.748 220.525L680.314 63.103L672.461 61.5781ZM641.895 219V211H599.219V219V227H641.895V219ZM748.27 61.5781L748.285 69.5781L748.293 69.5781L748.27 61.5781ZM815.652 140.484L807.712 139.511L807.711 139.519L807.71 139.526L815.652 140.484ZM666.336 219L658.483 217.474L656.632 227H666.336V219ZM696.902 61.6758L696.887 53.6758L690.305 53.6883L689.049 60.15L696.902 61.6758ZM772.781 140.289L764.86 139.17L764.857 139.189L764.855 139.208L772.781 140.289ZM731.863 100.641V92.6406H725.267L724.01 99.1165L731.863 100.641ZM716.531 179.645L708.678 178.12L706.829 187.645H716.531V179.645ZM748.27 61.5781L748.293 69.5781C763.402 69.5333 779.941 73.9612 791.701 84.532C803.091 94.7708 811.111 111.77 807.712 139.511L815.652 140.484L823.593 141.457C827.517 109.433 818.302 86.9304 802.397 72.633C786.862 58.6677 766.047 53.5253 748.246 53.5782L748.27 61.5781ZM815.652 140.484L807.71 139.526C803.353 175.641 784.088 193.073 764.556 201.895C744.492 210.958 723.858 211 717.703 211V219V227C724.146 227 747.75 227.042 771.143 216.476C795.069 205.669 818.479 183.844 823.595 141.443L815.652 140.484ZM717.703 219V211H666.336V219V227H717.703V219ZM666.336 219L674.189 220.526L704.755 63.2016L696.902 61.6758L689.049 60.15L658.483 217.474L666.336 219ZM696.902 61.6758L696.918 69.6758L748.285 69.5781L748.27 61.5781L748.254 53.5781L696.887 53.6758L696.902 61.6758ZM772.781 140.289L780.703 141.408C782.758 126.852 779.59 114.38 771.593 105.512C763.666 96.7219 752.042 92.6406 739.48 92.6406V100.641V108.641C748.696 108.641 755.529 111.591 759.711 116.228C763.824 120.788 766.417 128.141 764.86 139.17L772.781 140.289ZM739.48 100.641V92.6406H731.863V100.641V108.641H739.48V100.641ZM731.863 100.641L724.01 99.1165L708.678 178.12L716.531 179.645L724.385 181.169L739.717 102.165L731.863 100.641ZM716.531 179.645V187.645H724.441V179.645V171.645H716.531V179.645ZM724.441 179.645V187.645C734.806 187.645 747.482 185.054 758.343 177.938C769.46 170.653 778.329 158.816 780.708 141.37L772.781 140.289L764.855 139.208C763.132 151.84 757.011 159.681 749.573 164.555C741.879 169.596 732.436 171.645 724.441 171.645V179.645ZM1008.97 115.582L1001.08 114.248L1001.08 114.261L1008.97 115.582ZM973.324 157.574L970.952 149.934L961.73 152.798L966.259 161.326L973.324 157.574ZM1005.94 219V227H1019.25L1013.01 215.248L1005.94 219ZM959.945 219L952.73 222.456L954.907 227H959.945V219ZM931.039 158.648L938.254 155.193L927.799 133.364L923.186 157.124L931.039 158.648ZM919.32 219V227H925.916L927.174 220.525L919.32 219ZM876.742 219L868.887 217.485L867.051 227H876.742V219ZM907.113 61.5781V53.5781H900.509L899.258 60.0626L907.113 61.5781ZM942.367 99.6641V91.6641H935.776L934.515 98.1337L942.367 99.6641ZM936.41 130.23L928.558 128.7L926.717 138.147L936.341 138.23L936.41 130.23ZM947.738 130.328L947.888 122.33L947.848 122.329L947.807 122.328L947.738 130.328ZM1008.97 115.582L1001.08 114.261C998.135 131.836 986.485 145.111 970.952 149.934L973.324 157.574L975.697 165.214C997.273 158.514 1012.97 140.148 1016.86 116.903L1008.97 115.582ZM973.324 157.574L966.259 161.326L998.876 222.752L1005.94 219L1013.01 215.248L980.39 153.822L973.324 157.574ZM1005.94 219V211H959.945V219V227H1005.94V219ZM959.945 219L967.16 215.544L938.254 155.193L931.039 158.648L923.824 162.104L952.73 222.456L959.945 219ZM931.039 158.648L923.186 157.124L911.467 217.475L919.32 219L927.174 220.525L938.892 160.173L931.039 158.648ZM919.32 219V211H876.742V219V227H919.32V219ZM876.742 219L884.597 220.515L914.968 63.0936L907.113 61.5781L899.258 60.0626L868.887 217.485L876.742 219ZM907.113 61.5781V69.5781H959.945V61.5781V53.5781H907.113V61.5781ZM959.945 61.5781V69.5781C974.207 69.5781 985.585 74.2743 992.733 81.7624C999.744 89.1081 1003.5 99.9735 1001.08 114.248L1008.97 115.582L1016.86 116.916C1020.01 98.2804 1015.22 82.1439 1004.31 70.7151C993.534 59.4288 977.617 53.5781 959.945 53.5781V61.5781ZM942.367 99.6641L934.515 98.1337L928.558 128.7L936.41 130.23L944.262 131.761L950.219 101.194L942.367 99.6641ZM936.41 130.23L936.341 138.23L947.669 138.328L947.738 130.328L947.807 122.328L936.479 122.231L936.41 130.23ZM947.738 130.328L947.589 138.327C961.334 138.584 973.114 130.4 975.18 116.675L967.27 115.484L959.359 114.293C958.69 118.733 955.041 122.463 947.888 122.33L947.738 130.328ZM967.27 115.484L975.18 116.675C976.177 110.055 974.508 103.681 970.363 98.9171C966.235 94.1729 960.206 91.6641 953.695 91.6641V99.6641V107.664C956.071 107.664 957.513 108.524 958.292 109.42C959.055 110.296 959.729 111.831 959.359 114.293L967.27 115.484ZM953.695 99.6641V91.6641H942.367V99.6641V107.664H953.695V99.6641ZM1018.08 219L1010.22 217.475L1008.38 227H1018.08V219ZM1048.64 61.5781V53.5781H1042.05L1040.79 60.0533L1048.64 61.5781ZM1151.87 118.219L1159.79 119.357L1159.79 119.356L1151.87 118.219ZM1069.84 172.613V164.613H1063.25L1061.98 171.076L1069.84 172.613ZM1060.75 219V227H1067.34L1068.6 220.537L1060.75 219ZM1088.78 134.137L1088.71 142.136L1088.72 142.137L1088.78 134.137ZM1112.02 117.926L1119.91 119.241L1119.92 119.2L1119.93 119.159L1112.02 117.926ZM1083.9 100.152V92.1523H1077.31L1076.05 98.6139L1083.9 100.152ZM1077.26 134.039L1069.41 132.501L1067.55 141.957L1077.19 142.039L1077.26 134.039ZM1018.08 219L1025.93 220.525L1056.5 63.103L1048.64 61.5781L1040.79 60.0533L1010.22 217.475L1018.08 219ZM1048.64 61.5781V69.5781H1102.84V61.5781V53.5781H1048.64V61.5781ZM1102.84 61.5781V69.5781C1116.63 69.5781 1127.86 74.2667 1135.06 82.0694C1142.18 89.7724 1146.2 101.402 1143.95 117.081L1151.87 118.219L1159.79 119.356C1162.61 99.6836 1157.7 82.9932 1146.82 71.2138C1136.03 59.5341 1120.21 53.5781 1102.84 53.5781V61.5781ZM1151.87 118.219L1143.95 117.081C1141.83 131.855 1135.1 143.536 1124.78 151.601C1114.4 159.719 1099.79 164.613 1081.26 164.613V172.613V180.613C1102.58 180.613 1120.88 174.961 1134.64 164.207C1148.47 153.399 1157.12 137.883 1159.79 119.357L1151.87 118.219ZM1081.26 172.613V164.613H1069.84V172.613V180.613H1081.26V172.613ZM1069.84 172.613L1061.98 171.076L1052.9 217.463L1060.75 219L1068.6 220.537L1077.69 174.15L1069.84 172.613ZM1060.75 219V211H1018.08V219V227H1060.75V219ZM1088.78 134.137L1088.72 142.137C1096.76 142.194 1103.96 140.363 1109.6 136.283C1115.35 132.116 1118.77 126.098 1119.91 119.241L1112.02 117.926L1104.13 116.611C1103.61 119.715 1102.25 121.851 1100.21 123.324C1098.06 124.883 1094.48 126.177 1088.84 126.137L1088.78 134.137ZM1112.02 117.926L1119.93 119.159C1121.07 111.833 1119.36 104.765 1114.43 99.5524C1109.61 94.4472 1102.68 92.1523 1095.32 92.1523V100.152V108.152C1099.49 108.152 1101.74 109.422 1102.8 110.542C1103.76 111.555 1104.64 113.374 1104.12 116.693L1112.02 117.926ZM1095.32 100.152V92.1523H1083.9V100.152V108.152H1095.32V100.152ZM1083.9 100.152L1076.05 98.6139L1069.41 132.501L1077.26 134.039L1085.11 135.578L1091.75 101.691L1083.9 100.152ZM1077.26 134.039L1077.19 142.039L1088.71 142.136L1088.78 134.137L1088.85 126.137L1077.33 126.039L1077.26 134.039Z" fill="white" mask="url(#path-1-outside-1_175_6)"/>
<path d="M132.382 74.2783C132.402 75.2172 132.842 75.8758 133.148 76.2168C133.445 76.5476 133.747 76.7348 133.897 76.8203C134.201 76.9932 134.465 77.0718 134.543 77.0947C134.743 77.1534 134.908 77.1789 134.951 77.1855C135.075 77.2047 135.187 77.2143 135.239 77.2188C135.366 77.2294 135.515 77.2381 135.66 77.2451C135.962 77.2597 136.379 77.2738 136.871 77.2881C137.862 77.3167 139.218 77.3457 140.703 77.3672C152.244 77.535 163.777 80.4381 173.647 85.6416C181.132 89.5874 186.738 93.7493 192.943 99.9785C201.67 108.739 207.558 118.469 211.721 131.099C214.715 140.184 215.83 147.743 215.83 159.426C215.83 169.824 214.819 177.253 212.172 186.464C208.937 197.72 205.198 206.015 199.205 215.269C188.033 232.518 172.479 246.667 154.783 255.708C143.34 261.555 132.577 264.985 119.512 266.703C121.851 265.712 124.007 264.744 125.664 263.914C150.689 251.378 169.875 230.667 179.698 205.489C180.474 203.502 181.738 199.766 182.771 196.549C183.291 194.931 183.763 193.409 184.096 192.268C184.26 191.703 184.4 191.198 184.495 190.812C184.54 190.628 184.591 190.41 184.625 190.202C184.64 190.111 184.669 189.923 184.676 189.701C184.679 189.597 184.682 189.374 184.638 189.1C184.616 188.967 184.509 188.241 183.914 187.569L183.789 187.436C182.598 186.246 181.156 186.581 180.827 186.677C180.394 186.803 180.094 186.998 180.005 187.058C179.78 187.206 179.622 187.355 179.582 187.393C179.464 187.503 179.367 187.611 179.319 187.664C179.205 187.792 179.072 187.95 178.94 188.111C178.667 188.445 178.292 188.915 177.852 189.479C176.966 190.612 175.766 192.179 174.462 193.907C164.79 206.731 157.681 213.383 145.973 220.667C129.219 231.089 111.136 235.868 90.1729 235.351C75.0943 234.979 62.1605 232.053 48.6221 225.96C40.8321 222.454 31.4145 216.706 24.9932 211.545C21.4477 208.695 17.5787 205.04 14.0381 201.278C24.8199 207.5 37.3007 212.253 49.4814 214.63C65.4251 217.74 84.1021 217.472 98.1572 213.896L99.5029 213.539L102.684 212.662L102.05 206.774L97.5225 206.529C68.2928 204.941 43.116 191.787 26.2031 169.37C16.7293 156.813 10.6182 141.845 8.06152 124.766C7.70439 122.38 7.52685 116.632 7.56348 110.602C7.60006 104.579 7.84644 98.7721 8.23633 96.2822C8.6859 93.4108 9.48723 89.6355 10.3936 85.9531C10.5072 88.8075 10.6871 91.4283 10.9365 93.2334C13.4171 111.183 18.6612 125.775 27.6006 139.384C32.1856 146.364 35.6879 150.689 40.1543 154.769L40.1553 154.77C40.5433 155.124 40.8785 155.423 41.1533 155.656C41.3669 155.838 41.7215 156.135 42.082 156.346C42.184 156.405 42.3918 156.521 42.666 156.617C42.8113 156.668 43.6121 156.959 44.5889 156.654C45.1823 156.469 45.7636 156.083 46.1768 155.482C46.5596 154.925 46.6703 154.37 46.6992 154.01C46.7508 153.367 46.5804 152.873 46.5352 152.742C46.4138 152.392 46.2472 152.113 46.1865 152.012C46.0982 151.865 46.0008 151.719 45.9111 151.589V151.588C44.5576 149.624 42.5727 145.41 40.6494 140.448C38.7523 135.554 37.0394 130.258 36.1562 126.291C33.4517 114.143 33.2677 101.094 35.627 88.8994C37.7216 78.0713 42.4299 65.9098 48.043 56.7988C60.3916 36.7561 78.7928 21.2002 100.889 12.1445C109.757 8.51015 118.428 6.12126 128.431 4.63672C125.26 6.14495 122.241 7.69747 119.842 9.08789C104.084 18.2183 89.226 32.1568 79.5762 46.8926C78.3621 48.7465 76.942 51.1612 76.1836 52.6973L75.9014 53.2979L74.9404 55.4844L79.7783 58.8428L83.6455 55.0811V55.0801C87.9569 50.8861 90.5022 48.8384 95.9248 45.2158C110.195 35.6828 125.989 29.8767 144.406 27.4424C150.319 26.6612 163.736 26.3623 169.382 26.8818C197.585 29.4773 223.31 41.7681 242.055 61.4502C226.756 52.5312 208.671 46.1542 191.708 43.9678C185.369 43.1506 175.766 43.0233 171.228 43.7734H171.227L168.084 44.293L167.643 50.1055L172.47 51.6807C195.838 59.3103 215.403 73.6265 229.406 93.3184C242.996 112.428 250.251 135.961 249.388 157.853C249.067 165.99 248.164 172.611 246.312 179.934C246.267 175.195 246.044 170.55 245.616 166.976C244.423 157.002 242.521 148.459 239.416 139.146C235.108 126.225 227.747 112.772 219.186 102.171C214.818 96.7631 207.065 89.2568 201.551 85.0986C190.865 77.0402 178.222 71.2556 166.295 69.0459C163.51 68.5299 159.442 68.2478 155.52 68.1836C151.846 68.1235 148.061 68.25 145.348 68.6191L144.819 68.6963C143.026 68.9772 140.443 69.5593 138.339 70.1016C137.282 70.3739 136.292 70.6494 135.545 70.8887C135.184 71.0043 134.808 71.1339 134.492 71.2686C134.351 71.3287 134.104 71.4387 133.85 71.5996C133.732 71.6739 133.482 71.8412 133.227 72.1094C133.052 72.2923 132.355 73.0525 132.382 74.2783ZM130.508 101.219C127.902 101.099 125.061 101.184 123.095 101.645C116.94 103.085 111.38 105.901 107.489 109.752C104.319 112.89 100.973 117.694 99.6377 121.228C96.1943 130.337 97.3455 140.071 102.759 148.443C105.312 152.392 108.365 155.522 112.04 157.948C103.521 157.184 95.7915 153.478 89.3623 146.988C83.5933 141.165 79.4209 133.065 77.665 124.073H77.6641C77.5218 123.345 77.3568 122.628 77.1992 122.048C77.1216 121.762 77.0359 121.473 76.9463 121.217C76.9023 121.091 76.8439 120.935 76.7715 120.774C76.7304 120.683 76.5683 120.316 76.2617 119.953H76.2607C75.9621 119.6 75.0799 118.739 73.6494 118.85C72.311 118.953 71.5872 119.839 71.373 120.132C70.927 120.742 70.7697 121.425 70.7207 121.631C70.5666 122.279 70.4733 123.112 70.4131 123.93C70.2879 125.631 70.2636 127.904 70.3887 130.048V130.049C71.1592 143.247 75.3279 153.257 83.6279 160.719C95.5345 171.423 113.634 174.676 129.723 169.272C141.154 165.433 151.494 156.506 156.088 146.262C158.805 140.202 159.975 132.488 158.94 126.546C156.945 115.077 148.919 105.761 137.963 102.315C135.973 101.69 133.128 101.339 130.508 101.219Z" stroke="white" stroke-width="6"/>
</svg>
